<svg width="32" height="32" viewBox="0 0 32 32" fill="none" xmlns="http://www.w3.org/2000/svg">
<g clip-path="url(#clip0_8_340)">
<path d="M3.69114 24.9587C2.62185 24.9587 1.5772 24.6858 0.630453 24.1542C0.143335 23.9033 -0.0453337 23.2757 0.24567 22.8036C1.21254 21.2586 1.56168 19.37 1.119 17.5939C0.660156 15.7526 -0.00375044 14.2018 0.00100193 12.2525C0.0174768 5.41377 5.70963 -0.130338 12.5414 0.00233249C19.1401 0.13524 24.5783 5.68221 24.5784 12.2826C24.5784 20.9029 15.5443 26.955 7.56883 23.6262C6.46953 24.4891 5.08778 24.9587 3.69114 24.9587ZM2.39184 22.854C3.89422 23.3206 5.58393 22.9479 6.74248 21.8278C7.02794 21.5518 7.45494 21.4823 7.81311 21.6537C14.6412 24.9183 22.6774 19.8013 22.6773 12.2826C22.6773 6.67212 18.1132 2.01583 12.5031 1.90288C6.72172 1.78804 1.91589 6.47039 1.90195 12.2571C1.89744 14.1086 2.6198 15.5882 3.01456 17.3421C3.43047 19.1903 3.21139 21.1448 2.39184 22.854Z" fill="#FF0000"/>
<path d="M28.3094 32.0002C26.9128 32.0002 25.531 31.5305 24.4319 30.6678C20.1904 32.4379 15.1451 31.6318 11.6674 28.6284C11.2701 28.2853 11.2262 27.6852 11.5692 27.2878C11.9124 26.8906 12.5125 26.8465 12.9098 27.1897C15.9943 29.8534 20.5115 30.4526 24.1875 28.6952C24.5456 28.5238 24.9725 28.5933 25.2581 28.8694C26.4166 29.9894 28.1064 30.3623 29.6088 29.8955C28.642 27.879 28.508 25.5688 29.2572 23.4301C29.264 23.4108 29.2713 23.3919 29.2793 23.373C29.8264 22.0832 30.1021 20.7123 30.0987 19.2986C30.0927 16.8061 29.2636 14.5005 27.7008 12.6308C27.3642 12.228 27.4178 11.6287 27.8206 11.292C28.2233 10.9553 28.8228 11.009 29.1594 11.4118C30.984 13.5948 31.9927 16.394 31.9997 19.294C32.0037 20.955 31.6814 22.567 31.0418 24.0859C30.37 26.0306 30.679 28.1129 31.7549 29.8449C32.0461 30.3171 31.8573 30.9448 31.37 31.1958C30.4234 31.7272 29.3785 32.0001 28.3094 32.0002Z" fill="#FF0000"/>
<path d="M12.2889 13.8333C13.1195 13.8333 13.7928 13.1603 13.7928 12.3301C13.7928 11.4999 13.1195 10.8269 12.2889 10.8269C11.4583 10.8269 10.7849 11.4999 10.7849 12.3301C10.7849 13.1603 11.4583 13.8333 12.2889 13.8333Z" fill="#FF0000"/>
<path d="M6.74786 13.8333C7.57848 13.8333 8.25183 13.1603 8.25183 12.3301C8.25183 11.4999 7.57848 10.8269 6.74786 10.8269C5.91725 10.8269 5.2439 11.4999 5.2439 12.3301C5.2439 13.1603 5.91725 13.8333 6.74786 13.8333Z" fill="#FF0000"/>
<path d="M17.8299 13.8333C18.6605 13.8333 19.3339 13.1603 19.3339 12.3301C19.3339 11.4999 18.6605 10.8269 17.8299 10.8269C16.9993 10.8269 16.3259 11.4999 16.3259 12.3301C16.3259 13.1603 16.9993 13.8333 17.8299 13.8333Z" fill="#FF0000"/>
</g>
<defs>
<clipPath id="clip0_8_340">
<rect width="32" height="32" fill="white"/>
</clipPath>
</defs>
</svg>
