<svg width="32" height="32" viewBox="0 0 32 32" fill="none" xmlns="http://www.w3.org/2000/svg">
<g clip-path="url(#clip0_8_453)">
<path d="M15.3351 16.1559C15.697 16.5195 16.2996 16.5237 16.6649 16.1559L20.7785 12.0383C21.4423 11.3744 21.808 10.4917 21.808 9.55284C21.808 8.61397 21.4423 7.73122 20.7785 7.06734C20.1146 6.40353 19.2319 6.03784 18.293 6.03784C17.4421 6.03784 16.6375 6.33809 16 6.88853C15.3624 6.33809 14.5578 6.03784 13.7069 6.03784C12.768 6.03784 11.8853 6.40347 11.2215 7.06734C10.5576 7.73128 10.1919 8.61397 10.1919 9.55284C10.1919 10.4917 10.5576 11.3744 11.2215 12.0383L15.3351 16.1559ZM12.5473 8.39315C12.8571 8.0834 13.2689 7.91284 13.707 7.91284C14.145 7.91284 14.5569 8.0834 14.8666 8.39315L15.3371 8.86365C15.7032 9.22978 16.2968 9.22978 16.663 8.86365L17.1335 8.39315C17.4432 8.0834 17.8551 7.91278 18.2931 7.91278C18.7312 7.91278 19.143 8.08334 19.4528 8.39309C19.7625 8.70284 19.9331 9.11465 19.9331 9.55272C19.9331 9.99078 19.7626 10.4026 19.4528 10.7123L16 14.1692L12.5473 10.7124C12.2376 10.4027 12.067 9.99084 12.067 9.55278C12.067 9.11472 12.2376 8.7029 12.5473 8.39315Z" fill="#FF0000"/>
<path d="M31.9324 30.7122L27.273 19.1429C27.1301 18.788 26.7859 18.5556 26.4034 18.5556H22.5966C24.7104 16.4975 26.6045 14.2017 26.6045 10.6044C26.6046 4.75712 21.8475 0 16.0002 0C10.1529 0 5.39585 4.75712 5.39585 10.6044C5.39585 14.2017 7.29004 16.4975 9.40379 18.5556H5.5971C5.21454 18.5556 4.87035 18.7881 4.72748 19.1429L0.0681036 30.7122C-0.0482089 31.0012 -0.0135214 31.329 0.160791 31.5872C0.335104 31.8453 0.626291 32 0.937729 32H31.0627C31.3742 32 31.6654 31.8453 31.8397 31.5872C32.014 31.3291 32.0487 31.0012 31.9324 30.7122ZM7.27085 10.6044C7.27085 5.791 11.1868 1.875 16.0002 1.875C20.8137 1.875 24.7296 5.791 24.7296 10.6044C24.7296 13.9958 22.5463 16.0444 20.2349 18.2132C18.6372 19.7122 17.0028 21.2458 16.0002 23.2653C14.9977 21.2458 13.3633 19.7122 11.7656 18.2132C9.45417 16.0444 7.27085 13.9958 7.27085 10.6044ZM2.32598 30.125L6.23023 20.4306H11.3805C13.229 22.2116 14.8159 24.0384 15.0668 26.7376C15.1116 27.2196 15.5161 27.5882 16.0003 27.5882C16.4845 27.5882 16.889 27.2196 16.9338 26.7376C17.1847 24.0384 18.7715 22.2115 20.6201 20.4306H25.7704L29.6745 30.125H2.32598Z" fill="#FF0000"/>
</g>
<defs>
<clipPath id="clip0_8_453">
<rect width="32" height="32" fill="white"/>
</clipPath>
</defs>
</svg>
