<svg width="32" height="32" viewBox="0 0 32 32" fill="none" xmlns="http://www.w3.org/2000/svg">
<g clip-path="url(#clip0_8_417)">
<path d="M12 26.5625H9C8.48225 26.5625 8.0625 26.9822 8.0625 27.5C8.0625 28.0178 8.48225 28.4375 9 28.4375H12C12.5177 28.4375 12.9375 28.0178 12.9375 27.5C12.9375 26.9822 12.5177 26.5625 12 26.5625Z" fill="#FF0000"/>
<path d="M29.5625 0H14.5C13.6658 0 12.9283 0.4215 12.4887 1.0625H3.75C1.68225 1.0625 0 2.74475 0 4.8125V6V24V28.25C0 30.3177 1.68225 32 3.75 32H17.1875C19.2552 32 20.9375 30.3177 20.9375 28.25V24V19.9375H29.5625C30.9066 19.9375 32 18.8441 32 17.5V2.4375C32 1.09344 30.9066 0 29.5625 0ZM3.75 2.9375H12.0625V5.0625H1.875V4.8125C1.875 3.77863 2.71613 2.9375 3.75 2.9375ZM17.1875 30.125H3.75C2.71613 30.125 1.875 29.2839 1.875 28.25V24.9375H19.0625V28.25C19.0625 29.2839 18.2214 30.125 17.1875 30.125ZM19.0625 23.0625H1.875V6.9375H12.0625V17.5C12.0625 18.5121 12.6824 19.382 13.5625 19.75V20.5C13.5625 20.8151 13.7208 21.1092 13.9839 21.2826C14.2474 21.4564 14.5802 21.4856 14.8693 21.3617L18.1924 19.9375H19.0625V23.0625ZM30.125 17.5C30.125 17.8101 29.8727 18.0625 29.5625 18.0625H18C17.8731 18.0625 17.7474 18.0883 17.6307 18.1383L15.4375 19.0783V19C15.4375 18.4823 15.0177 18.0625 14.5 18.0625C14.1899 18.0625 13.9375 17.8101 13.9375 17.5V2.4375C13.9375 2.12738 14.1899 1.875 14.5 1.875H29.5625C29.8727 1.875 30.125 2.12738 30.125 2.4375V17.5Z" fill="#FF0000"/>
<path d="M22 3.5625C18.4504 3.5625 15.5625 6.45038 15.5625 10C15.5625 13.5496 18.4504 16.4375 22 16.4375C25.5496 16.4375 28.4375 13.5496 28.4375 10C28.4375 6.45038 25.5496 3.5625 22 3.5625ZM22 14.5625C19.4843 14.5625 17.4375 12.5157 17.4375 10C17.4375 7.48425 19.4843 5.4375 22 5.4375C24.5157 5.4375 26.5625 7.48425 26.5625 10C26.5625 12.5157 24.5157 14.5625 22 14.5625Z" fill="#FF0000"/>
<path d="M21.4375 9V8.5C21.4375 7.98225 21.0178 7.5625 20.5 7.5625C19.9822 7.5625 19.5625 7.98225 19.5625 8.5V9C19.5625 9.51775 19.9822 9.9375 20.5 9.9375C21.0178 9.9375 21.4375 9.51775 21.4375 9Z" fill="#FF0000"/>
<path d="M23.5 7.5625C22.9822 7.5625 22.5625 7.98225 22.5625 8.5V9C22.5625 9.51775 22.9822 9.9375 23.5 9.9375C24.0178 9.9375 24.4375 9.51775 24.4375 9V8.5C24.4375 7.98225 24.0178 7.5625 23.5 7.5625Z" fill="#FF0000"/>
<path d="M22.3371 11.3371C22.1511 11.5229 21.8488 11.5229 21.6629 11.3371C21.2968 10.971 20.7032 10.971 20.3371 11.3371C19.9709 11.7032 19.971 12.2968 20.3371 12.6629C20.7956 13.1213 21.3978 13.3505 21.9999 13.3505C22.6021 13.3505 23.2044 13.1213 23.6628 12.6629C24.0289 12.2968 24.0289 11.7032 23.6628 11.3371C23.2968 10.971 22.7032 10.9709 22.3371 11.3371Z" fill="#FF0000"/>
</g>
<defs>
<clipPath id="clip0_8_417">
<rect width="32" height="32" fill="white"/>
</clipPath>
</defs>
</svg>
