<svg width="32" height="32" viewBox="0 0 32 32" fill="none" xmlns="http://www.w3.org/2000/svg">
<g clip-path="url(#clip0_8_402)">
<path d="M27.8999 19.8811C28.5931 18.1669 28.945 16.3528 28.945 14.4725C28.945 10.6068 27.4396 6.9725 24.7061 4.239C21.9725 1.50544 18.3381 0 14.4725 0C10.6069 0 6.9725 1.50544 4.239 4.23894C1.5055 6.97244 0 10.6068 0 14.4725C0 18.3382 1.50544 21.9725 4.23894 24.7061C6.97244 27.4396 10.6068 28.945 14.4724 28.945C16.3528 28.945 18.1669 28.5931 19.881 27.8999C20.7594 30.2903 23.0588 32 25.75 32C29.1963 32 32 29.1963 32 25.75C32 23.0588 30.2903 20.7594 27.8999 19.8811ZM14.4725 27.07C7.52619 27.07 1.875 21.4188 1.875 14.4725C1.875 7.52625 7.52619 1.875 14.4725 1.875C21.4188 1.875 27.07 7.52619 27.07 14.4725C27.07 16.2297 26.7177 17.9198 26.0236 19.5064C22.3896 19.3285 19.3284 22.3897 19.5063 26.0237C17.9198 26.7177 16.2297 27.07 14.4725 27.07ZM25.75 30.125C23.3376 30.125 21.375 28.1624 21.375 25.75C21.375 23.3376 23.3376 21.375 25.75 21.375C28.1624 21.375 30.125 23.3376 30.125 25.75C30.125 28.1624 28.1624 30.125 25.75 30.125Z" fill="#FF0000"/>
<path d="M26.6497 24.0871L25.1875 25.5492L24.6629 25.0245C24.2968 24.6585 23.7032 24.6585 23.3371 25.0245C22.971 25.3906 22.971 25.9842 23.3371 26.3504L24.5246 27.5379C24.8907 27.904 25.4843 27.904 25.8504 27.5379L27.9754 25.4129C28.3415 25.0468 28.3415 24.4532 27.9754 24.087C27.6093 23.721 27.0157 23.721 26.6497 24.0871Z" fill="#FF0000"/>
<path d="M21.8036 16.5864C21.8942 16.04 21.4291 15.504 20.8754 15.5168H8.06968C7.51593 15.504 7.0508 16.04 7.14149 16.5864C7.39037 18.3353 8.26299 19.9421 9.59862 21.1106C10.9474 22.2908 12.6784 22.9407 14.4725 22.9407C16.2666 22.9407 17.9975 22.2908 19.3464 21.1106C20.6821 19.9421 21.5547 18.3353 21.8036 16.5864ZM18.1118 19.6995C17.1049 20.5805 15.8124 21.0656 14.4726 21.0656C13.1327 21.0656 11.8402 20.5805 10.8332 19.6995C10.1156 19.0716 9.57693 18.275 9.26187 17.3918H19.6832C19.3681 18.275 18.8295 19.0716 18.1118 19.6995Z" fill="#FF0000"/>
<path d="M19.785 12.625C20.7438 12.625 21.6451 12.2517 22.3229 11.5738C22.689 11.2077 22.6889 10.6141 22.3229 10.248C21.9568 9.88179 21.3632 9.88192 20.9971 10.248C20.6733 10.5718 20.2429 10.75 19.7849 10.75C19.3271 10.75 18.8966 10.5717 18.5728 10.248C18.2068 9.88192 17.6131 9.88192 17.247 10.248C16.8809 10.614 16.8809 11.2077 17.247 11.5738C17.925 12.2517 18.8263 12.625 19.785 12.625Z" fill="#FF0000"/>
<path d="M11.6979 11.5738C12.064 11.2077 12.0639 10.6141 11.6979 10.248C11.3318 9.88179 10.7382 9.88192 10.3721 10.248C10.0483 10.5718 9.61788 10.75 9.15994 10.75C8.70213 10.75 8.27163 10.5717 7.94782 10.248C7.58176 9.88192 6.98813 9.88192 6.62201 10.248C6.25588 10.614 6.25588 11.2077 6.62201 11.5738C7.30001 12.2517 8.20132 12.625 9.16001 12.625C10.1187 12.625 11.02 12.2517 11.6979 11.5738Z" fill="#FF0000"/>
</g>
<defs>
<clipPath id="clip0_8_402">
<rect width="32" height="32" fill="white"/>
</clipPath>
</defs>
</svg>
