<svg width="32" height="32" viewBox="0 0 32 32" fill="none" xmlns="http://www.w3.org/2000/svg">
<g clip-path="url(#clip0_8_328)">
<path d="M30.9735 9.39178L27.0123 7.10474C26.7133 6.93217 26.3312 7.03455 26.1586 7.33349C25.986 7.63243 26.0884 8.01463 26.3873 8.18726L30.3485 10.4743C30.5345 10.5817 30.6675 10.7549 30.723 10.9624C30.7786 11.1697 30.7501 11.3863 30.6427 11.5723C30.4212 11.9561 29.9286 12.0881 29.5448 11.8665L16.726 4.4655L17.5297 3.07341L21.5164 5.37514C21.8155 5.54783 22.1976 5.44533 22.3702 5.14639C22.5428 4.84744 22.4404 4.46525 22.1414 4.29262L18.1547 1.99082L18.6058 1.20956C18.7784 0.910616 18.676 0.528421 18.3771 0.355792C18.078 0.183227 17.6958 0.285666 17.5233 0.584547L13.0708 8.29638C12.364 7.932 11.4855 8.18463 11.0838 8.88052L10.4057 10.0551L9.70958 9.65322C9.41076 9.48072 9.02838 9.5831 8.85581 9.88198L8.45393 10.5781L7.06184 9.77435L7.46372 9.07828C7.63635 8.77933 7.53391 8.39714 7.23497 8.22451C6.93602 8.05201 6.55383 8.15438 6.3812 8.45326L4.95248 10.9279C4.77986 11.2269 4.8823 11.6091 5.18124 11.7817C5.27968 11.8385 5.38712 11.8656 5.49318 11.8656C5.70919 11.8656 5.91925 11.7535 6.03501 11.5529L6.43689 10.8569L7.82898 11.6606L7.42709 12.3567C7.34422 12.5002 7.32172 12.6708 7.36466 12.8309C7.40759 12.991 7.51228 13.1275 7.65585 13.2104L8.35193 13.6123L7.5291 15.0375C6.51789 14.6784 5.36018 15.0796 4.80479 16.0414L0.574588 23.3681C0.0192644 24.3301 0.250831 25.5333 1.06735 26.2294L0.103578 27.8988C0.0494524 27.9925 0.000763994 28.0987 1.39791e-05 28.207V31.0988C-0.00148605 31.3236 0.117829 31.532 0.31252 31.6444C0.409209 31.7003 0.517087 31.7282 0.625026 31.7282C0.734341 31.7282 0.843655 31.6995 0.94122 31.6423L3.43571 30.1793C3.52908 30.1244 3.60665 30.0464 3.66077 29.9526L4.62467 28.2831C4.87117 28.3706 5.12618 28.4138 5.37931 28.4138C6.16432 28.4138 6.9289 28.0067 7.34891 27.2794L11.579 19.9527C11.8822 19.4276 11.9627 18.8159 11.8057 18.2303C11.6851 17.7798 11.4345 17.3866 11.0865 17.0909L11.9091 15.6662L23.4906 22.3528C23.8132 22.539 24.1658 22.6275 24.514 22.6275C25.2243 22.6275 25.9161 22.2592 26.2961 21.6011C26.5704 21.1259 26.6433 20.5726 26.5013 20.0426C26.3593 19.5127 26.0195 19.0699 25.5443 18.7956L25.0502 18.5103C25.4228 18.2974 25.7458 17.9866 25.9754 17.589L28.0903 13.9258C28.3199 13.5281 28.4273 13.093 28.4254 12.6638L28.9198 12.9492C29.2424 13.1354 29.595 13.2239 29.9432 13.2239C30.6535 13.2239 31.3453 12.8555 31.7253 12.1975C32.2915 11.2165 31.9543 9.95804 30.9735 9.39178ZM19.673 14.9794C19.3479 15.0666 19.0081 15.0218 18.7165 14.8535L17.5279 14.1673C16.926 13.8197 16.7191 13.0473 17.0665 12.4453L19.1815 8.78214C19.3498 8.49058 19.6216 8.28201 19.9469 8.19488C20.0555 8.16582 20.1657 8.15144 20.2752 8.15144C20.4934 8.15144 20.7088 8.20863 20.9029 8.32051L22.0921 9.00715C22.3836 9.17546 22.5921 9.44728 22.6793 9.77248C22.7665 10.0977 22.7217 10.4374 22.5533 10.729L20.4383 14.3922C20.2701 14.6836 19.9983 14.8922 19.673 14.9794ZM19.0243 7.2358C18.6517 7.44881 18.3286 7.75931 18.099 8.15707L15.984 11.8203C15.7544 12.218 15.647 12.6532 15.6489 13.0824L13.9628 12.1089L14.6409 10.9343C14.8414 10.587 14.8947 10.1825 14.7909 9.7951C14.6934 9.43128 14.4672 9.12503 14.1524 8.9229L16.1009 5.54802L19.0243 7.2358ZM12.1663 9.50553C12.2356 9.38553 12.3896 9.34428 12.5094 9.41353L13.4665 9.96611C13.5864 10.0354 13.6277 10.1893 13.5584 10.3092L12.8803 11.4838L11.4882 10.6801L12.1663 9.50553ZM2.66082 29.1845L1.25754 30.0076L1.26866 28.3808L2.13074 26.8876L3.52283 27.6913L2.66082 29.1845ZM10.4964 19.3276L6.26632 26.6543C5.98513 27.1413 5.36012 27.3088 4.87323 27.0276L2.03049 25.3863C1.54348 25.1052 1.37604 24.4802 1.65717 23.9932L5.88725 16.6665C6.07594 16.3397 6.41939 16.1569 6.77214 16.1569C6.94502 16.1569 7.12015 16.2008 7.28034 16.2933L10.1231 17.9346C10.359 18.0708 10.5278 18.2906 10.5983 18.5538C10.6688 18.8169 10.6326 19.0917 10.4964 19.3276ZM10.0228 16.4332L9.99033 16.4144L8.63074 15.6295L9.43445 14.2374L10.8266 15.0411L10.0228 16.4332ZM25.2134 20.9759C25.1061 21.1619 24.9328 21.2949 24.7254 21.3504C24.518 21.4059 24.3014 21.3775 24.1155 21.2701L8.82206 12.4404L9.62582 11.0483L24.9192 19.878C25.3031 20.0996 25.435 20.5921 25.2134 20.9759ZM27.0077 13.3006L24.8928 16.9638C24.5452 17.5657 23.7729 17.7726 23.1709 17.4252L21.9823 16.739C21.3804 16.3914 21.1734 15.619 21.5209 15.0171L23.6358 11.3539C23.8042 11.0623 24.076 10.8537 24.4012 10.7666C24.5099 10.7375 24.6201 10.7231 24.7296 10.7231C24.9479 10.7231 25.1635 10.7804 25.3578 10.8926L26.5469 11.5791C27.1484 11.9268 27.3552 12.6989 27.0077 13.3006Z" fill="#FF0000"/>
<path d="M24.2642 6.86499C24.6093 6.86499 24.8892 6.58517 24.8892 6.23999C24.8892 5.89481 24.6093 5.61499 24.2642 5.61499C23.919 5.61499 23.6392 5.89481 23.6392 6.23999C23.6392 6.58517 23.919 6.86499 24.2642 6.86499Z" fill="#FF0000"/>
</g>
<defs>
<clipPath id="clip0_8_328">
<rect width="32" height="32" fill="white"/>
</clipPath>
</defs>
</svg>
